<svg width="160" height="31" viewBox="0 0 160 31" fill="none" xmlns="http://www.w3.org/2000/svg">
<path d="M46.125 0.430176C45.8382 0.494121 45.5593 0.589185 45.2932 0.713676C40.6452 2.88601 37.6667 8.96084 37.6667 14.1653C37.6667 19.112 41.3802 23.1767 46.125 23.6258V0.430176ZM47.875 23.6258C52.6198 23.1767 56.3333 19.1132 56.3333 14.1665C56.3333 13.6928 56.3088 13.2122 56.2598 12.7268L47.875 21.1128V23.6258ZM54.3033 6.37668C53.8556 5.53753 53.3323 4.7409 52.74 3.99668L47.875 8.86168V12.805L54.3033 6.37668ZM51.5593 2.70168C50.7235 1.88758 49.7599 1.216 48.7068 0.713676C48.4407 0.589185 48.1618 0.494121 47.875 0.430176V6.38718L51.5593 2.70168ZM55.092 8.06134L47.875 15.2795V18.6372L55.904 10.6082C55.6986 9.7398 55.4271 8.88838 55.092 8.06134Z" fill="black"/>
<path d="M15.6885 14.3428C15.6885 14.792 15.5713 15.1387 15.3369 15.3828C15.1123 15.6172 14.6826 15.7344 14.0479 15.7344H3.94043C3.97949 16.6231 4.13574 17.3897 4.40918 18.0342C4.68262 18.6787 5.04395 19.1865 5.49316 19.5576C5.94238 19.919 6.43555 20.1875 6.97266 20.3633C7.50977 20.5293 8.0957 20.6123 8.73047 20.6123C9.61914 20.6123 10.5273 20.4561 11.4551 20.1436C12.3828 19.8311 13.2227 19.3916 13.9746 18.8252C14.5312 19.4795 14.8096 20.124 14.8096 20.7588C14.8096 21.1787 14.5312 21.5938 13.9746 22.0039C13.418 22.4043 12.666 22.7363 11.7188 23C10.7715 23.2637 9.78516 23.3955 8.75977 23.3955C7.91992 23.3955 7.11914 23.3125 6.35742 23.1465C5.60547 22.9805 4.86328 22.6924 4.13086 22.2822C3.4082 21.8623 2.7832 21.335 2.25586 20.7002C1.72852 20.0654 1.30371 19.25 0.981445 18.2539C0.65918 17.2578 0.498047 16.1299 0.498047 14.8701C0.498047 13.6397 0.732422 12.5117 1.20117 11.4863C1.66992 10.4609 2.29004 9.62599 3.06152 8.98145C3.83301 8.32716 4.69238 7.82423 5.63965 7.47267C6.59668 7.1211 7.57812 6.94532 8.58398 6.94532C9.32617 6.94532 10.0391 7.0381 10.7227 7.22364C11.4062 7.40919 12.0508 7.70216 12.6562 8.10255C13.2617 8.49317 13.7891 8.97657 14.2383 9.55274C14.6875 10.1192 15.0391 10.8125 15.293 11.6328C15.5566 12.4531 15.6885 13.3565 15.6885 14.3428ZM12.7295 13.4639C12.6416 12.1065 12.2119 11.0762 11.4404 10.3731C10.6787 9.66017 9.76562 9.30372 8.70117 9.30372C7.56836 9.30372 6.53809 9.68458 5.61035 10.4463C4.69238 11.1983 4.16504 12.2041 4.02832 13.4639H12.7295Z" fill="black"/>
<path d="M34.4385 8.43946H33.2227C33.1348 8.43946 33.0225 8.35157 32.8857 8.17579C32.749 7.99024 32.5879 7.75587 32.4023 7.47267C32.2266 7.18946 32.0215 6.87696 31.7871 6.53517C31.5527 6.1836 31.2744 5.83692 30.9521 5.49513C30.6396 5.15333 30.3027 4.84083 29.9414 4.55763C29.5898 4.27442 29.1699 4.04493 28.6816 3.86915C28.2031 3.6836 27.7051 3.59083 27.1875 3.59083C26.2793 3.59083 25.4395 3.75685 24.668 4.08888C23.8965 4.41114 23.2422 4.8506 22.7051 5.40724C22.168 5.95411 21.7041 6.59864 21.3135 7.34083C20.9326 8.07325 20.6494 8.84962 20.4639 9.66993C20.2881 10.4902 20.2002 11.3301 20.2002 12.1895C20.2002 13.0098 20.3076 13.8106 20.5225 14.5918C20.7471 15.3633 21.084 16.0957 21.5332 16.7891C21.9922 17.4824 22.5391 18.0928 23.1738 18.6201C23.8184 19.1377 24.5947 19.5527 25.5029 19.8652C26.4111 20.168 27.3975 20.3193 28.4619 20.3193C30.7373 20.3193 32.8369 19.6016 34.7607 18.166C35.1416 18.6738 35.332 19.1719 35.332 19.6602C35.332 20.3633 34.9512 21.0127 34.1895 21.6084C33.4375 22.1943 32.5098 22.6387 31.4062 22.9414C30.3027 23.2442 29.1895 23.3955 28.0664 23.3955C26.5625 23.3955 25.1758 23.1856 23.9062 22.7656C22.6465 22.3457 21.5771 21.7793 20.6982 21.0664C19.8193 20.3535 19.0674 19.5234 18.4424 18.5762C17.8271 17.6192 17.373 16.6084 17.0801 15.544C16.7969 14.4795 16.6553 13.3809 16.6553 12.2481C16.6553 10.7149 16.9043 9.25489 17.4023 7.86817C17.9004 6.48145 18.5889 5.27052 19.4678 4.23536C20.3467 3.2002 21.4355 2.37989 22.7344 1.77442C24.0332 1.15919 25.4346 0.851572 26.9385 0.851572C27.8955 0.851572 28.8623 1.06642 29.8389 1.4961C30.8252 1.91602 31.6211 2.54102 32.2266 3.3711C32.2266 1.90626 32.417 1.17384 32.7979 1.17384H34.4385C34.9072 1.17384 35.1416 1.68165 35.1416 2.69727V6.60841C35.1416 7.16505 35.1123 7.5752 35.0537 7.83888C35.0049 8.09278 34.9365 8.25392 34.8486 8.32228C34.7705 8.38087 34.6338 8.41993 34.4385 8.43946Z" fill="black"/>
<path d="M73.8281 24.9043C73.8281 25.7734 73.6816 26.5254 73.3887 27.1602C73.0957 27.8047 72.71 28.3174 72.2314 28.6983C71.7529 29.0889 71.1426 29.4014 70.4004 29.6358C69.668 29.8701 68.916 30.0264 68.1445 30.1045C67.3828 30.1924 66.5039 30.2363 65.5078 30.2363C63.6719 30.2363 62.1045 30.0264 60.8057 29.6065C59.5166 29.1963 58.8721 28.6445 58.8721 27.9512C58.8721 26.5254 59.2725 24.9141 60.0732 23.1172C58.9502 22.7363 58.3887 21.9453 58.3887 20.7442C58.3887 19.5918 59.1016 18.4297 60.5273 17.2578C59.8047 16.7207 59.2578 16.0811 58.8867 15.3389C58.5254 14.5967 58.3447 13.8252 58.3447 13.0244C58.3447 12.2627 58.5156 11.5205 58.8574 10.7979C59.1992 10.0654 59.668 9.41603 60.2637 8.84962C60.8594 8.28321 61.5967 7.82911 62.4756 7.48731C63.3545 7.13575 64.2969 6.95997 65.3027 6.95997C66.1523 6.95997 66.8701 7.03321 67.4561 7.1797C68.042 7.32618 68.6084 7.56544 69.1553 7.89747C69.165 7.8877 69.2676 7.7754 69.4629 7.56056C69.6582 7.34571 69.8389 7.16505 70.0049 7.01856C70.1807 6.87208 70.4102 6.70118 70.6934 6.50587C70.9766 6.31056 71.2988 6.16407 71.6602 6.06642C72.0312 5.95899 72.417 5.90528 72.8174 5.90528C73.4619 5.90528 73.8672 5.97853 74.0332 6.12501C74.1992 6.26173 74.2822 6.54005 74.2822 6.95997V7.20899C74.2822 7.42384 74.2773 7.59962 74.2676 7.73634C74.2676 7.87306 74.2432 8.00489 74.1943 8.13185C74.1455 8.24903 74.1016 8.34181 74.0625 8.41017C74.0234 8.47853 73.9404 8.542 73.8135 8.6006C73.6865 8.65919 73.5693 8.70313 73.4619 8.73243C73.3643 8.75196 73.1885 8.77149 72.9346 8.79103C72.6904 8.81056 72.4658 8.82032 72.2607 8.82032C72.0654 8.82032 71.7725 8.82032 71.3818 8.82032C71.2939 8.82032 71.1475 8.81544 70.9424 8.80567C70.7471 8.79591 70.5957 8.79103 70.4883 8.79103C71.1523 9.24024 71.6797 9.86036 72.0703 10.6514C72.4609 11.4424 72.6562 12.3018 72.6562 13.2295C72.6562 14.7822 72.0312 16.0811 70.7812 17.126C69.541 18.1709 67.8271 18.6934 65.6396 18.6934C65.1514 18.6934 64.6777 18.6592 64.2188 18.5908C63.7598 18.5127 63.3398 18.4248 62.959 18.3272C62.5781 18.2197 62.3828 18.166 62.373 18.166C62.0508 18.8106 61.8896 19.4502 61.8896 20.085C61.8896 20.3877 62.1094 20.6025 62.5488 20.7295C62.9883 20.8565 63.5596 20.9248 64.2627 20.9346C64.9658 20.9443 65.7373 20.9492 66.5771 20.9492C67.4268 20.9395 68.2764 20.9834 69.126 21.0811C69.9756 21.1787 70.752 21.3447 71.4551 21.5791C72.1582 21.8135 72.7295 22.2139 73.1689 22.7803C73.6084 23.3369 73.8281 24.0449 73.8281 24.9043ZM65.4785 16.2031C66.2402 16.2031 66.8994 16.1152 67.4561 15.9395C68.0127 15.7539 68.4424 15.5049 68.7451 15.1924C69.0479 14.8701 69.2676 14.5283 69.4043 14.167C69.5508 13.7959 69.624 13.3906 69.624 12.9512C69.624 11.9844 69.2773 11.1543 68.584 10.4609C67.9004 9.76759 66.8848 9.42091 65.5371 9.42091C64.1992 9.42091 63.1934 9.7627 62.5195 10.4463C61.8457 11.1201 61.5088 11.9502 61.5088 12.9365C61.5088 13.8545 61.8262 14.6309 62.4609 15.2656C63.1055 15.8906 64.1113 16.2031 65.4785 16.2031ZM63.7939 23.6299C62.7393 23.5615 62.002 23.4736 61.582 23.3662C61.582 23.7861 61.582 24.0986 61.582 24.3037C61.5918 24.5186 61.6064 24.7969 61.626 25.1387C61.6553 25.4902 61.6943 25.7588 61.7432 25.9443C61.8018 26.1299 61.8799 26.3252 61.9775 26.5303C62.0752 26.7451 62.2021 26.9063 62.3584 27.0137C62.5146 27.1211 62.7002 27.1943 62.915 27.2334C64.1455 27.458 65.2637 27.5703 66.2695 27.5703C67.0898 27.5703 67.7734 27.5117 68.3203 27.3945C68.877 27.2871 69.2969 27.126 69.5801 26.9111C69.873 26.6963 70.0732 26.457 70.1807 26.1934C70.2979 25.9395 70.3564 25.6318 70.3564 25.2705C70.3564 24.1768 69.1211 23.6299 66.6504 23.6299H63.7939Z" fill="black"/>
<path d="M93.7354 23.1172C92.7881 23.0391 91.9336 23 91.1719 23C90.6738 23 90.1318 23.0195 89.5459 23.0586C88.96 23.0977 88.5742 23.1172 88.3887 23.1172C88.0566 23.1172 87.8906 22.7461 87.8906 22.0039V13.2295C87.8906 11.96 87.6855 11.0322 87.2754 10.4463C86.8652 9.8506 86.3281 9.55274 85.6641 9.55274C84.9805 9.55274 84.2285 9.74806 83.4082 10.1387C82.5977 10.5195 81.8359 11.0078 81.123 11.6035V19.3233C81.123 19.4697 81.1279 19.5869 81.1377 19.6748C81.1572 19.7529 81.1914 19.8457 81.2402 19.9531C81.2988 20.0606 81.3965 20.1436 81.5332 20.2022C81.6699 20.251 81.8457 20.2754 82.0605 20.2754C82.4316 20.2754 82.749 20.334 83.0127 20.4512C83.2764 20.5684 83.4082 20.7442 83.4082 20.9785C83.4082 22.1211 83.2471 22.834 82.9248 23.1172C82.3291 23.0391 81.2109 23 79.5703 23C77.9297 23 76.7432 23.0391 76.0107 23.1172C75.6885 22.8242 75.5273 22.1113 75.5273 20.9785C75.5273 20.7442 75.6592 20.5684 75.9229 20.4512C76.1865 20.334 76.5039 20.2754 76.875 20.2754C77.2559 20.2754 77.5049 20.1973 77.6221 20.041C77.7393 19.875 77.7979 19.6455 77.7979 19.3525V11.4863C77.7979 10.9688 77.6465 10.6025 77.3438 10.3877C77.0508 10.1729 76.4795 10.0459 75.6299 10.0068C75.5029 9.97755 75.4199 9.91407 75.3809 9.81642C75.3516 9.71876 75.3369 9.5088 75.3369 9.18653C75.3369 8.68849 75.3906 8.24903 75.498 7.86817C75.6055 7.48731 75.7129 7.26759 75.8203 7.20899C76.4648 7.31642 77.0947 7.37013 77.71 7.37013C78.1494 7.37013 78.6133 7.34571 79.1016 7.29688C79.5898 7.23829 79.8486 7.20899 79.8779 7.20899C80.2197 7.20899 80.4395 7.29688 80.5371 7.47267C80.6445 7.63868 80.6982 8.02931 80.6982 8.64454C80.6982 8.7129 80.6934 8.83985 80.6836 9.0254C80.6836 9.20118 80.6836 9.34278 80.6836 9.4502C81.5234 8.70802 82.4756 8.10743 83.54 7.64845C84.6045 7.18946 85.6299 6.95997 86.6162 6.95997C87.9834 6.95997 89.0918 7.44337 89.9414 8.41017C90.791 9.37696 91.2158 10.8955 91.2158 12.9658V19.2647C91.2158 19.8994 91.46 20.2363 91.9482 20.2754C92.0459 20.2852 92.1729 20.2949 92.3291 20.3047C92.4951 20.3145 92.6221 20.3242 92.71 20.334C92.8076 20.3438 92.9248 20.3584 93.0615 20.3779C93.1982 20.3877 93.3057 20.4024 93.3838 20.4219C93.4619 20.4317 93.5498 20.4512 93.6475 20.4805C93.7549 20.5 93.8379 20.5244 93.8965 20.5537C93.9551 20.583 94.0088 20.6172 94.0576 20.6563C94.1162 20.6953 94.1553 20.7442 94.1748 20.8027C94.2041 20.8516 94.2188 20.9102 94.2188 20.9785C94.2188 22.1113 94.0576 22.8242 93.7354 23.1172Z" fill="black"/>
<path d="M98.4961 4.7627C98.2617 4.7627 98.0225 4.74317 97.7783 4.70411C97.5342 4.65528 97.2656 4.57228 96.9727 4.45509C96.6895 4.3379 96.4551 4.15235 96.2695 3.89845C96.0938 3.64454 96.0059 3.34181 96.0059 2.99024C96.0059 1.78907 96.8164 1.18849 98.4375 1.18849C98.8965 1.18849 99.2822 1.24708 99.5947 1.36427C99.917 1.48145 100.151 1.6377 100.298 1.83302C100.454 2.02833 100.562 2.21876 100.62 2.40431C100.679 2.58985 100.708 2.79005 100.708 3.00489C100.708 3.44435 100.571 3.80567 100.298 4.08888C100.024 4.37208 99.7314 4.55763 99.4189 4.64552C99.1162 4.72364 98.8086 4.7627 98.4961 4.7627ZM100.913 8.64454V19.3233C100.913 19.4697 100.918 19.5869 100.928 19.6748C100.947 19.7529 100.981 19.8457 101.03 19.9531C101.089 20.0606 101.187 20.1436 101.323 20.2022C101.46 20.251 101.636 20.2754 101.851 20.2754C102.222 20.2754 102.539 20.334 102.803 20.4512C103.066 20.5684 103.198 20.7442 103.198 20.9785C103.198 22.1211 103.037 22.834 102.715 23.1172C101.836 23.0391 100.762 23 99.4922 23C98.1738 23 96.9434 23.0391 95.8008 23.1172C95.4785 22.8242 95.3174 22.1113 95.3174 20.9785C95.3174 20.7442 95.4492 20.5684 95.7129 20.4512C95.9766 20.334 96.2939 20.2754 96.665 20.2754C97.0459 20.2754 97.2949 20.1973 97.4121 20.041C97.5293 19.875 97.5879 19.6455 97.5879 19.3525V11.4863C97.5879 10.9688 97.4365 10.6025 97.1338 10.3877C96.8408 10.1729 96.2695 10.0459 95.4199 10.0068C95.293 9.97755 95.21 9.91407 95.1709 9.81642C95.1416 9.71876 95.127 9.5088 95.127 9.18653C95.127 8.68849 95.1807 8.24903 95.2881 7.86817C95.3955 7.48731 95.5029 7.26759 95.6104 7.20899C96.3623 7.31642 97.0898 7.37013 97.793 7.37013C98.2617 7.37013 98.7549 7.34571 99.2725 7.29688C99.79 7.23829 100.063 7.20899 100.093 7.20899C100.435 7.20899 100.654 7.29688 100.752 7.47267C100.859 7.63868 100.913 8.02931 100.913 8.64454Z" fill="black"/>
<path d="M114.521 20.0703C114.814 20.627 114.961 21.1494 114.961 21.6377C114.961 21.9111 114.839 22.1504 114.595 22.3555C114.36 22.5508 114.053 22.7022 113.672 22.8096C113.291 22.917 112.91 22.9951 112.529 23.044C112.148 23.0928 111.777 23.1172 111.416 23.1172C110.869 23.1172 110.361 23.0391 109.893 22.8828C109.424 22.7266 108.975 22.4727 108.545 22.1211C108.125 21.7598 107.793 21.2422 107.549 20.5684C107.305 19.8848 107.183 19.0742 107.183 18.1367V9.64063H106.553C105.4 9.64063 104.771 9.64552 104.663 9.65528C104.341 9.5381 104.18 9.16212 104.18 8.52735C104.18 7.75587 104.424 7.37013 104.912 7.37013H107.183C107.222 7.05763 107.256 6.65235 107.285 6.15431C107.324 5.64649 107.358 5.2461 107.388 4.95313C107.417 4.66017 107.461 4.31349 107.52 3.9131C107.588 3.5127 107.676 3.2002 107.783 2.9756C107.9 2.74122 108.047 2.51173 108.223 2.28712C108.398 2.06251 108.623 1.90138 108.896 1.80372C109.18 1.6963 109.512 1.64259 109.893 1.64259C110.156 1.64259 110.361 1.68653 110.508 1.77442V7.37013H112.456C113.618 7.37013 114.229 7.34571 114.287 7.29688C114.775 7.29688 115.02 7.71681 115.02 8.55665C115.02 9.19142 114.858 9.56739 114.536 9.68458C114.214 9.65528 113.584 9.64063 112.646 9.64063H110.508V18.0488C110.508 19.6699 111.035 20.4805 112.09 20.4805C112.773 20.4805 113.584 20.3438 114.521 20.0703Z" fill="black"/>
<path d="M119.59 4.7627C119.355 4.7627 119.116 4.74317 118.872 4.70411C118.628 4.65528 118.359 4.57228 118.066 4.45509C117.783 4.3379 117.549 4.15235 117.363 3.89845C117.188 3.64454 117.1 3.34181 117.1 2.99024C117.1 1.78907 117.91 1.18849 119.531 1.18849C119.99 1.18849 120.376 1.24708 120.688 1.36427C121.011 1.48145 121.245 1.6377 121.392 1.83302C121.548 2.02833 121.655 2.21876 121.714 2.40431C121.772 2.58985 121.802 2.79005 121.802 3.00489C121.802 3.44435 121.665 3.80567 121.392 4.08888C121.118 4.37208 120.825 4.55763 120.513 4.64552C120.21 4.72364 119.902 4.7627 119.59 4.7627ZM122.007 8.64454V19.3233C122.007 19.4697 122.012 19.5869 122.021 19.6748C122.041 19.7529 122.075 19.8457 122.124 19.9531C122.183 20.0606 122.28 20.1436 122.417 20.2022C122.554 20.251 122.729 20.2754 122.944 20.2754C123.315 20.2754 123.633 20.334 123.896 20.4512C124.16 20.5684 124.292 20.7442 124.292 20.9785C124.292 22.1211 124.131 22.834 123.809 23.1172C122.93 23.0391 121.855 23 120.586 23C119.268 23 118.037 23.0391 116.895 23.1172C116.572 22.8242 116.411 22.1113 116.411 20.9785C116.411 20.7442 116.543 20.5684 116.807 20.4512C117.07 20.334 117.388 20.2754 117.759 20.2754C118.14 20.2754 118.389 20.1973 118.506 20.041C118.623 19.875 118.682 19.6455 118.682 19.3525V11.4863C118.682 10.9688 118.53 10.6025 118.228 10.3877C117.935 10.1729 117.363 10.0459 116.514 10.0068C116.387 9.97755 116.304 9.91407 116.265 9.81642C116.235 9.71876 116.221 9.5088 116.221 9.18653C116.221 8.68849 116.274 8.24903 116.382 7.86817C116.489 7.48731 116.597 7.26759 116.704 7.20899C117.456 7.31642 118.184 7.37013 118.887 7.37013C119.355 7.37013 119.849 7.34571 120.366 7.29688C120.884 7.23829 121.157 7.20899 121.187 7.20899C121.528 7.20899 121.748 7.29688 121.846 7.47267C121.953 7.63868 122.007 8.02931 122.007 8.64454Z" fill="black"/>
<path d="M131.323 10.915L134.648 18.9717L137.622 10.9443C137.671 10.7979 137.695 10.666 137.695 10.5488C137.695 10.1777 137.471 9.9922 137.021 9.9922C136.504 9.9922 136.245 9.792 136.245 9.39161V9.28907C136.362 8.12696 136.528 7.4336 136.743 7.20899C137.651 7.31642 138.682 7.37013 139.834 7.37013C141.055 7.37013 142.134 7.31642 143.071 7.20899C143.452 7.39454 143.643 7.85841 143.643 8.6006C143.643 8.8252 143.608 9.0547 143.54 9.28907C143.491 9.52345 143.32 9.69923 143.027 9.81642C142.744 9.9336 142.422 9.9922 142.061 9.9922C141.943 9.9922 141.836 10.002 141.738 10.0215C141.65 10.0313 141.572 10.0606 141.504 10.1094C141.436 10.1484 141.377 10.1826 141.328 10.2119C141.289 10.2315 141.245 10.2852 141.196 10.3731C141.147 10.4512 141.113 10.5049 141.094 10.5342C141.084 10.5537 141.06 10.6172 141.021 10.7246C140.981 10.832 140.957 10.8955 140.947 10.915L137.432 19.4551C137.354 19.6504 137.246 19.9238 137.109 20.2754C136.973 20.6172 136.87 20.876 136.802 21.0518C136.733 21.2178 136.636 21.4277 136.509 21.6817C136.392 21.9356 136.279 22.126 136.172 22.2529C136.074 22.3701 135.947 22.4971 135.791 22.6338C135.645 22.7705 135.479 22.8682 135.293 22.9268C135.117 22.9756 134.917 23 134.692 23C134.399 23 134.141 22.9658 133.916 22.8975C133.701 22.8193 133.525 22.7315 133.389 22.6338C133.252 22.5361 133.115 22.3701 132.979 22.1358C132.842 21.8916 132.729 21.6719 132.642 21.4766C132.563 21.2715 132.441 20.9639 132.275 20.5537C132.109 20.1338 131.958 19.7676 131.821 19.4551L127.998 10.8858C127.988 10.8565 127.959 10.7832 127.91 10.666C127.861 10.5488 127.827 10.4756 127.808 10.4463C127.788 10.4072 127.744 10.3486 127.676 10.2705C127.617 10.1826 127.554 10.124 127.485 10.0947C127.427 10.0654 127.344 10.0361 127.236 10.0068C127.139 9.97755 127.021 9.9629 126.885 9.9629C126.523 9.9629 126.196 9.90431 125.903 9.78712C125.62 9.66993 125.454 9.49415 125.405 9.25978C125.337 8.93751 125.303 8.63478 125.303 8.35157C125.303 7.73634 125.493 7.35548 125.874 7.20899C126.812 7.31642 127.891 7.37013 129.111 7.37013C130.342 7.37013 131.47 7.31642 132.495 7.20899C132.71 7.4336 132.876 8.1172 132.993 9.25978V9.36231C132.993 9.7627 132.686 9.9629 132.07 9.9629C131.514 9.9629 131.235 10.1484 131.235 10.5195C131.235 10.6563 131.265 10.7881 131.323 10.915Z" fill="black"/>
<path d="M159.976 14.3428C159.976 14.792 159.858 15.1387 159.624 15.3828C159.399 15.6172 158.97 15.7344 158.335 15.7344H148.228C148.267 16.6231 148.423 17.3897 148.696 18.0342C148.97 18.6787 149.331 19.1865 149.78 19.5576C150.229 19.919 150.723 20.1875 151.26 20.3633C151.797 20.5293 152.383 20.6123 153.018 20.6123C153.906 20.6123 154.814 20.4561 155.742 20.1436C156.67 19.8311 157.51 19.3916 158.262 18.8252C158.818 19.4795 159.097 20.124 159.097 20.7588C159.097 21.1787 158.818 21.5938 158.262 22.0039C157.705 22.4043 156.953 22.7363 156.006 23C155.059 23.2637 154.072 23.3955 153.047 23.3955C152.207 23.3955 151.406 23.3125 150.645 23.1465C149.893 22.9805 149.15 22.6924 148.418 22.2822C147.695 21.8623 147.07 21.335 146.543 20.7002C146.016 20.0654 145.591 19.25 145.269 18.2539C144.946 17.2578 144.785 16.1299 144.785 14.8701C144.785 13.6397 145.02 12.5117 145.488 11.4863C145.957 10.4609 146.577 9.62599 147.349 8.98145C148.12 8.32716 148.979 7.82423 149.927 7.47267C150.884 7.1211 151.865 6.94532 152.871 6.94532C153.613 6.94532 154.326 7.0381 155.01 7.22364C155.693 7.40919 156.338 7.70216 156.943 8.10255C157.549 8.49317 158.076 8.97657 158.525 9.55274C158.975 10.1192 159.326 10.8125 159.58 11.6328C159.844 12.4531 159.976 13.3565 159.976 14.3428ZM157.017 13.4639C156.929 12.1065 156.499 11.0762 155.728 10.3731C154.966 9.66017 154.053 9.30372 152.988 9.30372C151.855 9.30372 150.825 9.68458 149.897 10.4463C148.979 11.1983 148.452 12.2041 148.315 13.4639H157.017Z" fill="black"/>
</svg>
