<svg width="160" height="35" viewBox="0 0 304 57" fill="none" xmlns="http://www.w3.org/2000/svg">
<path d="M7.06002 32.32C7.06002 34.12 7.48002 35.76 8.32002 37.24C9.20002 38.68 10.36 39.84 11.8 40.72C13.28 41.56 14.92 41.98 16.72 41.98C18.56 41.98 20.2 41.6 21.64 40.84C23.08 40.08 24.4 38.9 25.6 37.3C25.72 37.14 25.84 37.06 25.96 37.06C26.08 37.02 26.26 37.06 26.5 37.18L29.56 38.62C30 38.82 30.04 39.14 29.68 39.58C28.56 41.22 27.32 42.56 25.96 43.6C24.64 44.64 23.16 45.4 21.52 45.88C19.88 46.36 18.06 46.6 16.06 46.6C13.02 46.6 10.34 45.92 8.02002 44.56C5.70002 43.2 3.86002 41.3 2.50002 38.86C1.18002 36.42 0.52002 33.62 0.52002 30.46C0.52002 26.98 1.20002 24 2.56002 21.52C3.92002 19 5.76002 17.06 8.08002 15.7C10.44 14.3 13.06 13.6 15.94 13.6C18.9 13.6 21.48 14.26 23.68 15.58C25.92 16.86 27.66 18.72 28.9 21.16C30.14 23.6 30.76 26.56 30.76 30.04C30.76 30.4 30.72 30.72 30.64 31C30.56 31.24 30.3 31.36 29.86 31.36H7.66002C7.46002 31.36 7.30002 31.46 7.18002 31.66C7.10002 31.82 7.06002 32.04 7.06002 32.32ZM23.44 27.58C23.88 27.58 24.16 27.52 24.28 27.4C24.4 27.28 24.46 27.06 24.46 26.74C24.46 25.22 24.12 23.78 23.44 22.42C22.8 21.06 21.86 19.96 20.62 19.12C19.42 18.28 17.92 17.86 16.12 17.86C14.24 17.86 12.62 18.32 11.26 19.24C9.94002 20.12 8.92002 21.3 8.20002 22.78C7.52002 24.26 7.18002 25.84 7.18002 27.52L23.44 27.58Z" fill="black"/>
<path d="M55.6619 0.880017C57.7819 0.880017 59.7819 1.22002 61.6619 1.90002C63.5819 2.54002 65.3019 3.44002 66.8219 4.60002C68.3419 5.76002 69.5819 7.10002 70.5419 8.62002C71.5419 10.1 72.1819 11.72 72.4619 13.48C72.5419 13.92 72.5419 14.22 72.4619 14.38C72.3819 14.5 72.2019 14.58 71.9219 14.62L66.3419 14.98C66.1019 15.02 65.9419 14.98 65.8619 14.86C65.7819 14.74 65.7019 14.56 65.6219 14.32C65.1019 11.92 64.0019 9.96002 62.3219 8.44002C60.6419 6.92002 58.5019 6.16002 55.9019 6.16002C52.1019 6.16002 49.1619 7.60002 47.0819 10.48C45.0419 13.36 44.0219 17.76 44.0219 23.68C44.0219 29.52 45.0219 33.88 47.0219 36.76C49.0619 39.64 52.1019 41.08 56.1419 41.08C58.8219 41.08 61.0619 40.44 62.8619 39.16C64.7019 37.84 66.2019 35.7 67.3619 32.74C67.4819 32.46 67.7819 32.36 68.2619 32.44L72.5219 33.46C72.6419 33.5 72.7619 33.58 72.8819 33.7C73.0019 33.82 73.0219 34.08 72.9419 34.48C72.6619 35.52 72.2019 36.6 71.5619 37.72C70.9219 38.84 70.1219 39.94 69.1619 41.02C68.2019 42.06 67.0619 43 65.7419 43.84C64.4219 44.68 62.9219 45.36 61.2419 45.88C59.6019 46.36 57.8019 46.6 55.8419 46.6C51.8019 46.6 48.3219 45.66 45.4019 43.78C42.5219 41.9 40.3019 39.24 38.7419 35.8C37.1819 32.36 36.4019 28.3 36.4019 23.62C36.4019 18.9 37.1819 14.84 38.7419 11.44C40.3019 8.04002 42.5219 5.44002 45.4019 3.64002C48.2819 1.80002 51.7019 0.880017 55.6619 0.880017Z" fill="black"/>
<path d="M147.801 13.42C148.201 13.42 148.481 13.5 148.641 13.66C148.841 13.82 148.941 14.1 148.941 14.5V17.2C148.941 17.64 148.841 17.96 148.641 18.16C148.481 18.36 148.181 18.44 147.741 18.4C147.101 18.36 146.541 18.36 146.061 18.4C145.581 18.44 145.121 18.54 144.681 18.7C143.681 19.02 143.281 19.48 143.481 20.08C143.641 20.48 143.821 20.98 144.021 21.58C144.221 22.14 144.321 22.86 144.321 23.74C144.321 25.5 143.841 27.12 142.881 28.6C141.921 30.08 140.441 31.26 138.441 32.14C136.441 33.02 133.921 33.46 130.881 33.46C129.001 33.46 127.501 33.58 126.381 33.82C125.301 34.02 124.521 34.32 124.041 34.72C123.561 35.08 123.321 35.46 123.321 35.86C123.321 36.46 123.701 36.9 124.461 37.18C125.261 37.42 126.541 37.58 128.301 37.66L136.281 38.14C140.001 38.34 142.721 39.2 144.441 40.72C146.161 42.24 147.021 44.2 147.021 46.6C147.021 49.6 145.641 52 142.881 53.8C140.161 55.6 136.221 56.5 131.061 56.5C125.781 56.5 121.761 55.8 119.001 54.4C116.281 53 114.921 50.96 114.921 48.28C114.921 46.88 115.421 45.66 116.421 44.62C117.421 43.58 118.801 42.66 120.561 41.86C121.041 41.66 121.041 41.44 120.561 41.2C119.681 40.76 118.961 40.24 118.401 39.64C117.841 39 117.561 38.24 117.561 37.36C117.561 36.72 117.761 36.12 118.161 35.56C118.601 34.96 119.201 34.4 119.961 33.88C120.721 33.36 121.621 32.92 122.661 32.56C122.861 32.48 122.981 32.38 123.021 32.26C123.061 32.14 122.941 32 122.661 31.84C120.901 30.96 119.561 29.86 118.641 28.54C117.761 27.18 117.321 25.58 117.321 23.74C117.321 20.7 118.521 18.28 120.921 16.48C123.361 14.64 126.861 13.72 131.421 13.72C133.541 13.72 135.341 13.96 136.821 14.44C138.341 14.92 139.601 15.58 140.601 16.42C140.841 16.62 141.081 16.72 141.321 16.72C141.561 16.72 141.781 16.6 141.981 16.36C142.461 15.88 143.021 15.42 143.661 14.98C144.301 14.5 144.981 14.12 145.701 13.84C146.421 13.56 147.121 13.42 147.801 13.42ZM130.881 29.86C133.441 29.86 135.341 29.32 136.581 28.24C137.821 27.12 138.441 25.62 138.441 23.74C138.441 21.78 137.821 20.24 136.581 19.12C135.341 17.96 133.441 17.38 130.881 17.38C128.401 17.38 126.481 17.96 125.121 19.12C123.801 20.24 123.141 21.78 123.141 23.74C123.141 25.62 123.801 27.12 125.121 28.24C126.481 29.32 128.401 29.86 130.881 29.86ZM125.841 42.76C125.121 42.72 124.341 42.9 123.501 43.3C122.661 43.7 121.921 44.26 121.281 44.98C120.681 45.7 120.381 46.54 120.381 47.5C120.381 48.62 120.781 49.58 121.581 50.38C122.381 51.22 123.601 51.86 125.241 52.3C126.921 52.74 129.061 52.96 131.661 52.96C134.781 52.96 137.161 52.5 138.801 51.58C140.441 50.7 141.261 49.36 141.261 47.56C141.261 46.36 140.821 45.38 139.941 44.62C139.061 43.86 137.621 43.42 135.621 43.3L125.841 42.76Z" fill="black"/>
<path d="M155.621 46C154.981 46 154.661 45.68 154.661 45.04V15.1C154.661 14.5 154.921 14.2 155.441 14.2H160.181C160.661 14.2 160.901 14.46 160.901 14.98V18.28C160.901 18.48 160.941 18.62 161.021 18.7C161.141 18.74 161.301 18.66 161.501 18.46C162.741 17.46 163.921 16.6 165.041 15.88C166.161 15.12 167.301 14.56 168.461 14.2C169.621 13.8 170.881 13.6 172.241 13.6C175.281 13.6 177.641 14.44 179.321 16.12C181.001 17.8 181.841 20.02 181.841 22.78V44.92C181.841 45.64 181.501 46 180.821 46H176.381C176.061 46 175.821 45.94 175.661 45.82C175.541 45.66 175.481 45.4 175.481 45.04V24.04C175.481 22.28 175.021 20.9 174.101 19.9C173.181 18.9 171.761 18.4 169.841 18.4C168.761 18.4 167.761 18.58 166.841 18.94C165.921 19.26 165.001 19.76 164.081 20.44C163.161 21.08 162.141 21.9 161.021 22.9V44.98C161.021 45.66 160.641 46 159.881 46H155.621Z" fill="black"/>
<path d="M196.294 44.86C196.294 45.3 196.194 45.6 195.994 45.76C195.834 45.92 195.534 46 195.094 46H191.014C190.574 46 190.274 45.94 190.114 45.82C189.994 45.66 189.934 45.4 189.934 45.04V15.1C189.934 14.5 190.214 14.2 190.774 14.2H195.574C196.054 14.2 196.294 14.48 196.294 15.04V44.86ZM196.474 7.84002C196.474 8.68002 196.074 9.10002 195.274 9.10002H190.834C190.394 9.10002 190.094 9.00002 189.934 8.80002C189.814 8.60002 189.754 8.32002 189.754 7.96002V2.50002C189.754 1.82002 190.054 1.48002 190.654 1.48002H195.634C196.194 1.48002 196.474 1.80002 196.474 2.44002V7.84002Z" fill="black"/>
<path d="M214.719 18.76C214.359 18.76 214.179 18.96 214.179 19.36V36.94C214.179 38.66 214.499 39.84 215.139 40.48C215.779 41.08 216.759 41.38 218.079 41.38H221.919C222.159 41.38 222.339 41.46 222.459 41.62C222.579 41.74 222.639 41.9 222.639 42.1V44.68C222.639 45.2 222.339 45.54 221.739 45.7C221.219 45.78 220.579 45.84 219.819 45.88C219.059 45.92 218.299 45.96 217.539 46C216.819 46 216.179 46 215.619 46C213.019 46 211.059 45.4 209.739 44.2C208.459 42.96 207.819 41.06 207.819 38.5V19.48C207.819 19 207.619 18.76 207.219 18.76H202.719C202.199 18.76 201.939 18.52 201.939 18.04V14.86C201.939 14.42 202.179 14.2 202.659 14.2H207.459C207.779 14.2 207.939 14.02 207.939 13.66L208.659 4.24002C208.699 3.68002 208.939 3.40002 209.379 3.40002H213.519C214.039 3.40002 214.299 3.72002 214.299 4.36002V13.66C214.299 14.02 214.479 14.2 214.839 14.2H222.039C222.519 14.2 222.759 14.42 222.759 14.86V18.04C222.759 18.52 222.479 18.76 221.919 18.76H214.719Z" fill="black"/>
<path d="M235.201 44.86C235.201 45.3 235.101 45.6 234.901 45.76C234.741 45.92 234.441 46 234.001 46H229.921C229.481 46 229.181 45.94 229.021 45.82C228.901 45.66 228.841 45.4 228.841 45.04V15.1C228.841 14.5 229.121 14.2 229.681 14.2H234.481C234.961 14.2 235.201 14.48 235.201 15.04V44.86ZM235.381 7.84002C235.381 8.68002 234.981 9.10002 234.181 9.10002H229.741C229.301 9.10002 229.001 9.00002 228.841 8.80002C228.721 8.60002 228.661 8.32002 228.661 7.96002V2.50002C228.661 1.82002 228.961 1.48002 229.561 1.48002H234.541C235.101 1.48002 235.381 1.80002 235.381 2.44002V7.84002Z" fill="black"/>
<path d="M270.545 14.2C270.865 14.2 271.085 14.3 271.205 14.5C271.325 14.7 271.325 14.94 271.205 15.22L259.085 44.98C258.845 45.66 258.325 46 257.525 46H254.705C253.905 46 253.365 45.68 253.085 45.04L241.025 15.28C240.945 14.96 240.965 14.7 241.085 14.5C241.245 14.3 241.485 14.2 241.805 14.2H246.785C247.025 14.2 247.245 14.28 247.445 14.44C247.645 14.56 247.765 14.74 247.805 14.98L256.445 36.7C256.725 37.46 257.045 37.44 257.405 36.64L265.925 14.92C266.045 14.72 266.185 14.56 266.345 14.44C266.505 14.28 266.725 14.2 267.005 14.2H270.545Z" fill="black"/>
<path d="M280.165 32.32C280.165 34.12 280.585 35.76 281.425 37.24C282.305 38.68 283.465 39.84 284.905 40.72C286.385 41.56 288.026 41.98 289.826 41.98C291.666 41.98 293.305 41.6 294.745 40.84C296.185 40.08 297.505 38.9 298.705 37.3C298.825 37.14 298.945 37.06 299.065 37.06C299.185 37.02 299.365 37.06 299.605 37.18L302.665 38.62C303.105 38.82 303.145 39.14 302.785 39.58C301.665 41.22 300.425 42.56 299.065 43.6C297.745 44.64 296.265 45.4 294.625 45.88C292.985 46.36 291.165 46.6 289.165 46.6C286.125 46.6 283.445 45.92 281.125 44.56C278.805 43.2 276.965 41.3 275.605 38.86C274.285 36.42 273.625 33.62 273.625 30.46C273.625 26.98 274.305 24 275.665 21.52C277.025 19 278.865 17.06 281.185 15.7C283.545 14.3 286.166 13.6 289.046 13.6C292.006 13.6 294.585 14.26 296.785 15.58C299.025 16.86 300.765 18.72 302.005 21.16C303.245 23.6 303.865 26.56 303.865 30.04C303.865 30.4 303.825 30.72 303.745 31C303.665 31.24 303.405 31.36 302.965 31.36H280.766C280.566 31.36 280.405 31.46 280.285 31.66C280.205 31.82 280.165 32.04 280.165 32.32ZM296.546 27.58C296.986 27.58 297.265 27.52 297.385 27.4C297.505 27.28 297.565 27.06 297.565 26.74C297.565 25.22 297.226 23.78 296.546 22.42C295.906 21.06 294.965 19.96 293.725 19.12C292.525 18.28 291.025 17.86 289.225 17.86C287.345 17.86 285.725 18.32 284.365 19.24C283.045 20.12 282.025 21.3 281.305 22.78C280.625 24.26 280.285 25.84 280.285 27.52L296.546 27.58Z" fill="black"/>
<path d="M93.25 0.860352C92.6765 0.988243 92.1186 1.17837 91.5863 1.42735C82.2903 5.77202 76.3334 17.9217 76.3334 28.3307C76.3334 38.224 83.7603 46.3534 93.25 47.2517V0.860352ZM96.75 47.2517C106.24 46.3534 113.667 38.2264 113.667 28.333C113.667 27.3857 113.618 26.4244 113.52 25.4537L96.75 42.2257V47.2517ZM109.607 12.7534C108.711 11.0751 107.665 9.48181 106.48 7.99335L96.75 17.7234V25.61L109.607 12.7534ZM104.119 5.40335C102.447 3.77515 100.52 2.43201 98.4137 1.42735C97.8814 1.17837 97.3236 0.988243 96.75 0.860352V12.7744L104.119 5.40335ZM111.184 16.1227L96.75 30.559V37.2744L112.808 21.2164C112.397 19.4796 111.854 17.7768 111.184 16.1227Z" fill="black"/>
</svg>
