<svg width="38" height="48" viewBox="0 0 38 48" fill="none" xmlns="http://www.w3.org/2000/svg">
<path d="M17.25 0.860352C16.6764 0.988243 16.1186 1.17837 15.5863 1.42735C6.29031 5.77202 0.333313 17.9217 0.333313 28.3307C0.333313 38.224 7.76031 46.3534 17.25 47.2517V0.860352ZM20.75 47.2517C30.2396 46.3534 37.6666 38.2264 37.6666 28.333C37.6666 27.3857 37.6176 26.4244 37.5196 25.4537L20.75 42.2257V47.2517ZM33.6066 12.7534C32.7111 11.0751 31.6645 9.48181 30.48 7.99335L20.75 17.7234V25.61L33.6066 12.7534ZM28.1186 5.40335C26.447 3.77515 24.5198 2.43201 22.4136 1.42735C21.8814 1.17837 21.3235 0.988243 20.75 0.860352V12.7744L28.1186 5.40335ZM35.184 16.1227L20.75 30.559V37.2744L36.808 21.2164C36.3971 19.4796 35.8542 17.7768 35.184 16.1227Z" fill="#04451F"/>
</svg>
